<svg width="77" height="49" viewBox="0 0 77 49" fill="none" xmlns="http://www.w3.org/2000/svg">
<path d="M15.2963 0.523865C22.5041 0.523865 28.3472 6.41486 28.3472 13.6817V36.708C28.3472 37.3137 28.8341 37.8046 29.4347 37.8046C30.0353 37.8046 30.5222 37.3137 30.5222 36.708V13.6817C30.5222 6.41485 36.3654 0.523865 43.5731 0.523865H60.9743C69.3833 0.523865 76.2002 7.39669 76.2002 15.8747V21.3743C76.2002 25.0676 74.88 28.638 72.4808 31.4291L57.5735 48.7695H40.3041L62.6183 22.8113L62.7394 22.6571C63.0054 22.2851 63.1494 21.8362 63.1494 21.3743V15.8747C63.1494 14.6636 62.1756 13.6817 60.9743 13.6817H45.7483V12.5853C45.7483 11.9797 45.2613 11.4888 44.6607 11.4888C44.06 11.4888 43.5731 11.9797 43.5731 12.5853V35.6116C43.5731 42.8784 37.7301 48.7695 30.5222 48.7695H28.3472C21.1393 48.7695 15.2963 42.8784 15.2963 35.6116V12.5853C15.2963 11.9797 14.8094 11.4888 14.2087 11.4888C13.6081 11.4888 13.1211 11.9797 13.1211 12.5853V48.7695H0.0703125V13.6817C0.0703125 6.41485 5.91337 0.523865 13.1211 0.523865H15.2963Z" fill="#FC5800"/>
</svg>
